<svg width="40" height="40" viewBox="0 0 40 40" fill="none" xmlns="http://www.w3.org/2000/svg">
<circle cx="20" cy="20" r="20" fill="white" fill-opacity="0.5"/>
<path d="M20 28.325C19.7667 28.325 19.5293 28.2833 19.288 28.2C19.0467 28.1167 18.834 27.9833 18.65 27.8L16.925 26.225C15.1583 24.6083 13.5623 23.0043 12.137 21.413C10.7117 19.8217 9.99933 18.0673 10 16.15C10 14.5833 10.525 13.275 11.575 12.225C12.625 11.175 13.9333 10.65 15.5 10.65C16.3833 10.65 17.2167 10.8373 18 11.212C18.7833 11.5867 19.45 12.0993 20 12.75C20.55 12.1 21.2167 11.5877 22 11.213C22.7833 10.8383 23.6167 10.6507 24.5 10.65C26.0667 10.65 27.375 11.175 28.425 12.225C29.475 13.275 30 14.5833 30 16.15C30 18.0667 29.2917 19.825 27.875 21.425C26.4583 23.025 24.85 24.6333 23.05 26.25L21.35 27.8C21.1667 27.9833 20.9543 28.1167 20.713 28.2C20.4717 28.2833 20.234 28.325 20 28.325Z" fill="#FF0000"/>
</svg>
