<!-- <svg width="40" height="40" viewBox="0 0 40 40" fill="none" xmlns="http://www.w3.org/2000/svg">
<circle cx="20" cy="20" r="20" fill="white" fill-opacity="0.5"/>
<path d="M20.4792 27.8895C20.2771 27.8895 20.0767 27.8527 19.8781 27.7791C19.6795 27.7062 19.5049 27.594 19.3542 27.4426L18.1583 26.3645C16.3042 24.6805 14.6687 23.0426 13.2521 21.451C11.834 19.86 11.125 18.2062 11.125 16.4895C11.125 15.1645 11.575 14.052 12.475 13.152C13.375 12.252 14.4875 11.802 15.8125 11.802C16.5722 11.802 17.3635 11.994 18.1865 12.378C19.0094 12.7621 19.7806 13.4864 20.5 14.551C21.2201 13.4864 21.9913 12.7621 22.8135 12.378C23.6358 11.994 24.4271 11.802 25.1875 11.802C26.5125 11.802 27.625 12.252 28.525 13.152C29.425 14.052 29.875 15.1645 29.875 16.4895C29.875 18.2458 29.1372 19.9339 27.6615 21.5541C26.1858 23.1742 24.5705 24.7791 22.8156 26.3687L21.626 27.4426C21.4747 27.594 21.2965 27.7062 21.0917 27.7791C20.8868 27.852 20.683 27.8888 20.4802 27.8895M19.9906 15.6322C19.367 14.6267 18.7188 13.9103 18.0458 13.4833C17.3729 13.0569 16.6285 12.8437 15.8125 12.8437C14.7708 12.8437 13.9028 13.1909 13.2083 13.8853C12.5139 14.5798 12.1667 15.4478 12.1667 16.4895C12.1667 17.2589 12.3844 18.0478 12.8198 18.8562C13.2552 19.6652 13.8399 20.4937 14.574 21.3416C15.3073 22.1888 16.1507 23.0562 17.1042 23.9437C18.0562 24.8305 19.0479 25.7433 20.0792 26.6822C20.1993 26.7892 20.3396 26.8426 20.5 26.8426C20.6604 26.8426 20.8007 26.7892 20.9208 26.6822C21.9521 25.7433 22.9441 24.8301 23.8969 23.9426C24.8497 23.0565 25.6931 22.1895 26.4271 21.3416C27.1604 20.493 27.7448 19.6645 28.1802 18.8562C28.6156 18.0478 28.8333 17.2589 28.8333 16.4895C28.8333 15.4478 28.4861 14.5798 27.7917 13.8853C27.0972 13.1909 26.2292 12.8437 25.1875 12.8437C24.3715 12.8437 23.6271 13.0572 22.9542 13.4843C22.2806 13.9107 21.6323 14.6267 21.0094 15.6322C20.9538 15.726 20.8795 15.7961 20.7865 15.8426C20.6934 15.8892 20.5979 15.9124 20.5 15.9124C20.4021 15.9124 20.3066 15.8892 20.2135 15.8426C20.1205 15.7961 20.0465 15.726 19.9917 15.6322" fill="white"/>
</svg> -->


<svg width="42" height="43" viewBox="0 0 42 43" fill="none" xmlns="http://www.w3.org/2000/svg">
<path opacity="0.03" d="M21 42.7995C32.598 42.7995 42 33.3984 42 21.8015C42 10.2046 32.598 0.803467 21 0.803467C9.40202 0.803467 0 10.2046 0 21.8015C0 33.3984 9.40202 42.7995 21 42.7995Z" fill="black"/>
<path d="M21.62 30.6104C21.2154 30.7304 20.7847 30.7304 20.38 30.6104C17.48 29.6205 11 25.4909 11 18.4916C10.9979 17.7595 11.1401 17.0342 11.4184 16.357C11.6967 15.6799 12.1057 15.0642 12.622 14.5451C13.1383 14.0261 13.7518 13.6138 14.4275 13.3319C15.1032 13.05 15.8279 12.9039 16.56 12.9021C17.4238 12.9017 18.2756 13.1041 19.0468 13.4932C19.818 13.8822 20.4871 14.447 21 15.1419C21.6977 14.2026 22.6745 13.508 23.7908 13.1574C24.9071 12.8068 26.1057 12.8181 27.2152 13.1897C28.3247 13.5614 29.2882 14.2743 29.968 15.2265C30.6478 16.1788 31.009 17.3216 31 18.4916C31 25.4909 24.52 29.6205 21.62 30.6104Z" stroke="black" stroke-width="1.5" stroke-linecap="round" stroke-linejoin="round"/>
</svg>
